<?xml version="1.0" encoding="utf-8"?>
<!-- Svg Vector Icons : http://www.onlinewebfonts.com/icon -->
<!DOCTYPE svg PUBLIC "-//W3C//DTD SVG 1.1//EN" "http://www.w3.org/Graphics/SVG/1.1/DTD/svg11.dtd">
<svg version="1.1" xmlns="http://www.w3.org/2000/svg" xmlns:xlink="http://www.w3.org/1999/xlink" x="0px" y="0px" viewBox="0 0 1000 1000" enable-background="new 0 0 1000 1000" xml:space="preserve">
<metadata> Svg Vector Icons : http://www.onlinewebfonts.com/icon </metadata>
<g><g transform="translate(0.000000,512.000000) scale(0.100000,-0.100000)"><path d="M4039.9,5007.3c-67.2-7.7-168.9-40.3-240-76.8c-109.4-55.7-136.3-82.5-228.5-216.9c-132.5-192-286.1-341.7-455-443.5c-124.8-74.9-182.4-97.9-526-228.5c-119-44.2-167-76.8-270.7-180.4c-69.1-69.1-145.9-169-172.8-222.7c-42.2-90.2-46.1-117.1-46.1-422.4c-1.9-305.2-5.8-336-53.8-476.1c-61.4-172.8-134.4-293.7-295.7-485.7c-151.7-180.5-188.1-276.5-186.2-487.6c1.9-251.5,96-460.8,345.6-771.8l103.7-128.6l19.2-188.2c48-453.1,124.8-752.6,247.7-940.7c94.1-147.8,145.9-182.4,389.7-266.8c384-134.4,604.8-299.5,902.3-679.6c65.3-82.6,115.2-122.9,232.3-180.5c130.6-65.3,170.9-76.8,309.1-84.5c136.3-7.7,180.5,0,341.7,49.9c412.8,132.5,698.8,132.5,1109.6,0c157.4-49.9,201.6-55.7,326.4-48c236.1,15.4,408.9,103.7,545.2,274.6c44.2,53.8,117.1,147.8,165.1,207.3C6693.1-873.1,6862-731,7008-644.7c49.9,28.8,192,84.5,314.8,126.7c268.8,90.2,364.8,144,468.4,261.1C7941-86,7956.4-34.2,7956.4,336.4c0,320.6,1.9,330.2,61.4,485.7c38.4,96,122.9,253.4,215,391.7c86.4,124.8,165.1,264.9,178.5,309.1c34.6,122.9,30.7,408.9-9.6,526c-19.2,53.8-78.7,161.3-132.5,236.1c-109.4,157.4-216.9,372.5-257.2,522.2c-15.4,55.7-36.5,240-44.2,408.9c-13.4,282.2-19.2,316.8-69.1,412.8c-71,142.1-188.1,278.4-286.1,336c-46.1,26.9-188.1,82.5-316.8,124.8c-357.1,115.2-608.6,289.9-823.6,570.2c-149.7,195.8-201.6,241.9-339.8,305.3c-149.7,69.1-328.3,73-508.8,11.5c-205.4-69.1-382-99.8-599-99.8c-170.9,0-247.7,11.5-460.8,65.3C4258.7,5018.9,4191.6,5028.5,4039.9,5007.3z M5614.1,4091.6c785.2-201.6,1430.3-789.1,1695.2-1537.8c97.9-278.4,126.7-456.9,126.7-777.5c0-203.5-9.6-336-34.6-451.2C7198,357.5,6480-364.4,5508.5-577.5c-163.2-36.5-261.1-44.2-508.7-44.2c-337.9-1.9-504.9,25-800.6,122.9C3222-172.4,2552,749.1,2552,1764.7c0,1167.3,842.8,2154.1,2025.4,2372.9c109.4,19.2,245.7,25,479.9,21.1C5345.4,4151.1,5410.6,4143.4,5614.1,4091.6z"/><path d="M4725.3,3763.3c-307.2-44.2-645.1-170.8-900.4-339.8c-278.4-182.4-579.8-537.6-716.1-840.9c-197.7-437.7-224.6-992.6-74.9-1434.1c263-769.9,959.9-1307.4,1777.8-1376.5c385.9-32.6,754.5,36.5,1109.7,207.3c543.3,261.1,925.4,723.8,1079,1305.5c44.2,159.3,49.9,222.7,49.9,481.9c0,259.2-5.8,322.5-49.9,483.8c-201.6,760.2-794.8,1317-1578.1,1486C5257.1,3772.9,4888.5,3786.3,4725.3,3763.3z"/><path d="M7061.7-1088.1c-38.4-40.3-120.9-142.1-184.3-226.5c-286-380.1-541.4-524.1-986.8-558.7l-163.2-13.4l-195.8-539.5c-107.5-295.7-195.8-551-195.8-564.4c1.9-78.7,430.1-1190.3,560.6-1453.3c172.8-345.6,241.9-360.9,424.3-99.8c140.2,197.7,303.4,526,499.2,996.4l30.7,71l195.8-76.8c453.1-176.6,908.1-305.3,1077-305.3c163.2,0,178.5,55.7,101.7,353.3c-105.6,405.1-599,1635.7-923.4,2301.9C7196.1-986.4,7171.2-973,7061.7-1088.1z"/><path d="M2893.7-1166.9c-28.8-32.6-518.4-1127-712.3-1587.7c-226.5-541.4-378.2-984.9-378.2-1105.8c0-38.4,15.4-65.3,49.9-86.4c42.2-28.8,67.2-30.7,190.1-11.5c182.4,28.8,483.8,130.5,842.8,284.1c157.4,67.2,293.7,117.1,299.5,109.4c5.8-9.6,46.1-92.1,86.4-188.1c105.6-240,293.7-608.6,391.6-762.2c78.7-124.8,213.1-264.9,253.4-264.9c130.5,0,579.8,988.7,1088.5,2390.2c174.7,483.8,190.1,537.5,157.4,575.9c-36.5,44.2-124.8,34.6-441.5-38.4c-347.5-82.5-570.2-113.3-700.7-96c-289.9,38.4-495.3,182.4-839,581.7c-84.5,97.9-178.5,190.1-207.3,205.4C2926.4-1136.1,2918.7-1138.1,2893.7-1166.9z"/></g></g>
</svg>